<svg width="600" height="500" viewBox="0 0 600 500" xmlns="http://www.w3.org/2000/svg">
  <style>
    .bg-circle {
      fill: rgba(78, 166, 133, 0.1);
    }
    .silhouette {
      fill: #4EA685;
      opacity: 0.9;
    }
    .silhouette-accent {
      fill: #3D8BAE;
      opacity: 0.7;
    }
    .arrow {
      fill: none;
      stroke: #4EA685;
      stroke-width: 2;
      stroke-linecap: round;
      stroke-linejoin: round;
    }
    .tape {
      fill: none;
      stroke: #4EA685;
      stroke-width: 2;
      stroke-dasharray: 5, 5;
    }
    .leaf {
      fill: #4EA685;
    }
    .leaf-accent {
      fill: #3D8BAE;
    }
    .heart {
      fill: #FF6B6B;
    }
    .star {
      fill: #FFD700;
    }
  </style>
  
  <!-- Background Circle -->
  <circle class="bg-circle" cx="300" cy="250" r="240" />
  
  <!-- Female Silhouette - Before -->
  <path class="silhouette-accent" d="M200,100 C220,100 235,130 235,150 C235,170 230,190 220,230 C215,250 220,280 225,310 C230,340 225,360 220,380 C215,400 210,420 200,420 C190,420 185,400 180,380 C175,360 170,340 175,310 C180,280 185,250 180,230 C170,190 165,170 165,150 C165,130 180,100 200,100 Z" />
  
  <!-- Female Silhouette - After -->
  <path class="silhouette" d="M400,100 C415,100 425,130 425,150 C425,170 420,190 415,230 C410,250 412,280 415,310 C418,340 415,360 410,380 C405,400 400,420 400,420 C390,420 385,400 380,380 C375,360 372,340 375,310 C380,280 382,250 380,230 C375,190 370,170 370,150 C370,130 385,100 400,100 Z" />
  
  <!-- Arrow from Before to After -->
  <path class="arrow" d="M240,250 L360,250 M350,240 L360,250 L350,260" />
  
  <!-- Measuring Tape Around Waist -->
  <path class="tape" d="M180,230 C195,240 230,245 250,240 M400,230 C385,240 350,245 330,240" />
  
  <!-- Decorative Elements -->
  <!-- Leaf 1 -->
  <path class="leaf" d="M150,150 C160,140 180,145 185,160 C190,175 180,190 165,185 C150,180 140,160 150,150 Z" />
  
  <!-- Leaf 2 -->
  <path class="leaf-accent" d="M450,150 C440,140 420,145 415,160 C410,175 420,190 435,185 C450,180 460,160 450,150 Z" />
  
  <!-- Star -->
  <path class="star" d="M300,80 L307,95 L323,95 L310,105 L315,120 L300,110 L285,120 L290,105 L277,95 L293,95 Z" />
  
  <!-- Heart -->
  <path class="heart" d="M300,420 C280,400 250,380 250,350 C250,330 265,320 280,320 C290,320 295,325 300,335 C305,325 310,320 320,320 C335,320 350,330 350,350 C350,380 320,400 300,420 Z" />
</svg>
