<svg width="200" height="60" viewBox="0 0 200 60" xmlns="http://www.w3.org/2000/svg">
  <style>
    .logo-text {
      font-family: 'Playfair Display', serif;
      font-weight: 700;
      font-size: 24px;
      fill: #4EA685;
    }
    .leaf {
      fill: #4EA685;
    }
    .leaf-accent {
      fill: #3D8BAE;
    }
    .circle {
      fill: rgba(78, 166, 133, 0.1);
    }
  </style>
  
  <!-- Background Circle -->
  <circle class="circle" cx="30" cy="30" r="28" />
  
  <!-- Leaf Design - Main Leaf -->
  <path class="leaf" d="M30,15 C36,15 42,19 45,25 C48,31 48,40 40,45 C32,50 23,45 20,40 C17,35 17,25 20,20 C23,15 28,15 30,15 Z" />
  
  <!-- Leaf Design - Accent -->
  <path class="leaf-accent" d="M35,25 C38,28 40,32 38,36 C36,40 32,42 28,40 C24,38 22,34 24,30 C26,26 32,22 35,25 Z" />
  
  <!-- Stem -->
  <rect class="leaf" x="29" y="45" width="2" height="10" rx="1" />
  
  <!-- Text "Vitalia" -->
  <text x="70" y="38" class="logo-text">Vitalia</text>
</svg>
