<svg width="500" height="400" viewBox="0 0 500 400" xmlns="http://www.w3.org/2000/svg">
  <style>
    .body {
      fill: #F5B892;
    }
    .clothes {
      fill: #F0F0F0;
    }
    .clothes-accent {
      fill: #D9D9D9;
    }
    .shadow {
      fill: rgba(0, 0, 0, 0.1);
    }
    .background {
      fill: #F5F7FA;
    }
  </style>
  
  <!-- Background -->
  <rect class="background" width="500" height="400" />
  
  <!-- Shadow -->
  <ellipse class="shadow" cx="250" cy="360" rx="110" ry="15" />
  
  <!-- Body - After (slimmer) -->
  <path class="body" d="M180,100 C190,100 205,120 215,150 C225,180 230,220 230,240 C230,260 225,300 215,330 C205,360 190,380 180,380 C170,380 155,360 145,330 C135,300 130,260 130,240 C130,220 135,180 145,150 C155,120 170,100 180,100 Z" />
  
  <!-- Clothing - Tank Top -->
  <path class="clothes" d="M150,170 L210,170 L210,230 C210,270 190,280 180,280 C170,280 150,270 150,230 Z" />
  <path class="clothes-accent" d="M150,170 L160,170 L160,230 C160,255 170,260 180,260 C190,260 200,255 200,230 L200,170 L210,170 L210,175 L205,175 L205,230 C205,265 190,275 180,275 C170,275 155,265 155,230 L155,175 L150,175 Z" />
  
  <!-- Pants -->
  <path class="clothes" d="M150,280 L210,280 L210,380 L180,380 L150,380 Z" />
  <path class="clothes-accent" d="M150,280 L160,280 L160,375 L155,375 L155,380 L205,380 L205,375 L200,375 L200,280 L210,280 L210,285 L205,285 L205,380 L155,380 L155,285 L150,285 Z" />
  
  <!-- Measuring Tape Indicators -->
  <line x1="130" y1="240" x2="230" y2="240" stroke="#4EA685" stroke-width="2" stroke-dasharray="5,5" />
  <circle cx="130" cy="240" r="5" fill="#4EA685" />
  <circle cx="230" cy="240" r="5" fill="#4EA685" />
  <text x="145" y="230" fill="#4EA685" font-family="Arial" font-size="14" font-weight="bold">100 cm</text>
</svg>